<svg xmlns="http://www.w3.org/2000/svg" version="1.1" x="0" y="0" width="550.7" height="550.7" viewBox="0 0 550.7 550.7" xml:space="preserve">
	<path d="M229.8 200.6c0-10.4 8.6-19 19-19s19 8.6 19 19c0 10.4-8.6 19-19 19S229.8 211 229.8 200.6zM504 320.6c0 12.9-11 23.9-23.9 23.9 -0.6 0-1.2 0-1.8 0 -25.1 40.4-60.6 74.1-103.4 96.7v67.3c0 23.3-19 42.2-42.2 42.2h-169.6c-23.3 0-42.2-19-42.2-42.2V356.7c-45.3-36.7-74.1-92.4-74.1-155.4 0-111.4 90.6-201.3 201.3-201.3l0 0C359.5 0 449.4 90.6 449.4 201.3c0 63-28.8 118.7-74.1 155.4v61.8c34.9-20.2 64.9-49 86.3-82.6 -3.1-4.3-5.5-9.2-5.5-14.7 0-12.9 10.4-23.3 23.3-23.3C493.6 296.7 504 307.1 504 320.6zM185.1 200.6c0 34.9 28.2 63 63.6 63 34.9 0 63-28.2 63-63 0-34.9-28.2-63.6-63-63.6C213.3 137 185.1 165.8 185.1 200.6zM335.1 487.1H161.3v22h173.8V487.1zM335.1 434.4H161.3v22h173.8V434.4zM335.1 382.4H161.3v22h173.8V382.4z"/>
</svg>
