<?xml version="1.0" encoding="utf-8"?>

<!-- License Agreement at http://iconmonstr.com/license/ -->

<!DOCTYPE svg PUBLIC "-//W3C//DTD SVG 1.1//EN" "http://www.w3.org/Graphics/SVG/1.1/DTD/svg11.dtd">
<svg version="1.1" xmlns="http://www.w3.org/2000/svg" xmlns:xlink="http://www.w3.org/1999/xlink" x="0px" y="0px"
	 width="512px" height="512px" viewBox="0 0 512 512" enable-background="new 0 0 512 512" xml:space="preserve">
<path id="bell-2-icon" d="M310.489,117.73c-11.175-6.415-18.095-18.365-18.072-31.25c0-0.021,0-0.042,0-0.063
	C292.417,66.304,276.111,50,256,50c-20.113,0-36.417,16.304-36.417,36.417c0,0.021,0,0.042,0,0.064
	c0.022,12.901-6.884,24.828-18.072,31.25C120.43,164.271,167.02,318.832,82.3,346.149v36.101h347.4v-36.101
	C344.979,318.831,391.571,164.27,310.489,117.73z M256,71.642c8.147,0,14.775,6.627,14.775,14.775
	c0,8.147-6.628,14.775-14.775,14.775c-8.146,0-14.775-6.628-14.775-14.775C241.225,78.27,247.854,71.642,256,71.642z
	 M140.348,347.25c37.449-46.244,34.4-119.335,53.336-166.544C203.991,155.01,222.34,136.6,256,136.6
	c33.306,0,51.865,18.051,62.316,44.106c18.938,47.212,15.89,120.303,53.336,166.544H140.348z M306.167,412.333
	c0,27.431-22.236,49.667-49.667,49.667c-27.43,0-49.666-22.236-49.666-49.667H306.167z"/>
</svg>
