<svg xmlns="http://www.w3.org/2000/svg" version="1.1" x="0" y="0" width="512" height="512" viewBox="0 0 512 512" enable-background="new 0 0 512 512" xml:space="preserve">
	<path d="M310.5 117.7c-11.2-6.4-18.1-18.4-18.1-31.2 0 0 0 0 0-0.1C292.4 66.3 276.1 50 256 50c-20.1 0-36.4 16.3-36.4 36.4 0 0 0 0 0 0.1 0 12.9-6.9 24.8-18.1 31.3C120.4 164.3 167 318.8 82.3 346.1v36.1h347.4v-36.1C345 318.8 391.6 164.3 310.5 117.7zM256 71.6c8.1 0 14.8 6.6 14.8 14.8 0 8.1-6.6 14.8-14.8 14.8 -8.1 0-14.8-6.6-14.8-14.8C241.2 78.3 247.9 71.6 256 71.6zM140.3 347.3c37.4-46.2 34.4-119.3 53.3-166.5C204 155 222.3 136.6 256 136.6c33.3 0 51.9 18.1 62.3 44.1 18.9 47.2 15.9 120.3 53.3 166.5H140.3zM306.2 412.3c0 27.4-22.2 49.7-49.7 49.7 -27.4 0-49.7-22.2-49.7-49.7H306.2z"/>
</svg>
