<svg xmlns="http://www.w3.org/2000/svg" version="1.1" x="0" y="0" width="512" height="512" viewBox="0 0 512 512" enable-background="new 0 0 512 512" xml:space="preserve">
	<path d="M462 256c0 113.8-92.2 206-206 206S50 369.8 50 256 142.2 50 256 50 462 142.2 462 256zM422 256c0-91.8-74.3-166-166-166 -91.8 0-166 74.3-166 166 0 91.8 74.3 166 166 166C347.8 422 422 347.7 422 256zM325.3 362.5l-67.3-67.3 -67.3 67.3 -36.2-36.2 67.3-67.3 -67.3-67.3 36.2-36.2 67.3 67.3 67.3-67.3 36.2 36.2 -67.3 67.3 67.3 67.3L325.3 362.5z"/>
</svg>
