<svg xmlns="http://www.w3.org/2000/svg" version="1.1" x="0" y="0" width="612" height="612" viewBox="0 0 612 612" xml:space="preserve">
	<path d="M420.5 218.8c-0.3-6.9-2.9-13.8-8.2-19.1 -5.3-5.3-12.2-7.9-19.1-8.2 -7.7-0.3-15.5 2.3-21.4 8.2L306 265.4l-65.8-65.8c-5.9-5.9-13.7-8.5-21.4-8.2 -6.9 0.3-13.8 2.9-19.1 8.2 -5.3 5.3-7.9 12.2-8.2 19.1 -0.3 7.7 2.3 15.5 8.2 21.4L265.4 306l-65.8 65.8c-5.9 5.9-8.5 13.7-8.2 21.4 0.3 6.9 2.9 13.8 8.2 19.1 5.3 5.3 12.2 7.9 19.1 8.2 7.7 0.3 15.5-2.3 21.4-8.2L306 346.6l65.8 65.8c5.9 5.9 13.7 8.5 21.4 8.2 6.9-0.3 13.8-2.9 19.1-8.2 5.3-5.3 7.9-12.2 8.2-19.1 0.3-7.7-2.3-15.5-8.2-21.4L346.6 306l65.8-65.8C418.2 234.3 420.8 226.5 420.5 218.8zM306 0C137 0 0 137 0 306s137 306 306 306 306-137 306-306S475 0 306 0zM306 554.6C168.9 554.6 57.4 443.1 57.4 306S168.9 57.4 306 57.4 554.6 168.9 554.6 306 443.1 554.6 306 554.6z"/>
</svg>
