<?xml version="1.0" encoding="UTF-8" standalone="no"?>
<svg id="svg2" xmlns="http://www.w3.org/2000/svg" xml:space="preserve" height="100" width="100" version="1.1" viewBox="0 0 31.6 27.2">
  <g id="g4" transform="matrix(1 0 0 .84684 .035141 -1.8836)"><path id="path6" d="m29.3 2.3h-27c-1.3 0-2.3 1-2.3 2.2v22.6c0 1.2 1 2.3 2.3 2.3h27.1c1.2 0 2.3-1 2.3-2.3v-22.6c0-1.2-1-2.3-2.3-2.3zm-22 1.6c0.6 0 1.1 0.5 1.1 1.1s-0.5 1.1-1.1 1.1-1.1-0.5-1.1-1.1 0.5-1.1 1.1-1.1zm-3.4 0c0.6 0 1.1 0.5 1.1 1.1 0.1 0.7-0.4 1.2-1.1 1.2-0.6 0-1.1-0.5-1.1-1.1s0.5-1.2 1.1-1.2zm25.4 23.2h-27v-19.2h27.1v19.2z"/><polygon id="polygon8" points="5.4 17.3 12.6 13.9 12.6 12.6 5.4 9.2 5.4 10.8 11 13.2 11 13.3 5.4 15.7"/><rect id="rect10" y="12.5" width="3.9" x="16.1" height="1.5"/></g>
</svg>
