<?xml version="1.0" encoding="UTF-8" standalone="no"?>
<svg xmlns="http://www.w3.org/2000/svg" xml:space="preserve" height="29" width="32" version="1.1" y="0" x="0" viewBox="0 0 32 29">
  <style>.s0{stroke-width:19;stroke:#fff;}</style>
  <g transform="matrix(1 0 0 .90074 .019857 .057868)">
    <path d="m29 0h-26c-1.7 0-3 1.1-3 2.4v21.1c0 1.3 1.3 2.4 3 2.4h26c1.7 0 3-1.1 3-2.4v-21.1c0-1.3-1.3-2.4-3-2.4zm-17.8 1.7c0.6 0 1.2 0.4 1.2 0.9s-0.5 0.9-1.2 0.9c-0.6 0-1.2-0.4-1.2-0.9s0.5-0.9 1.2-0.9zm-3.3 0c0.6 0 1.2 0.4 1.2 0.9s-0.5 0.9-1.2 0.9c-0.6 0-1.2-0.4-1.2-0.9s0.5-0.9 1.2-0.9zm-3.3 0c0.6 0 1.2 0.4 1.2 0.9s-0.5 0.9-1.2 0.9c-0.6 0-1.2-0.4-1.2-0.9s0.5-0.9 1.2-0.9zm24 19.7c0 0.9-0.9 1.6-2 1.6h-21c-1.1 0-2-0.7-2-1.6l-0.1-14.5c0-0.9 0.3-0.9 1.1-0.9l10.4-0.1c1.1 0 0.9-0.4 0.9-1.1s-0.1-1.1 0.8-1.2h10.8c0.7 0 1 0 1 0.9zm-4.9-9.2c-0.2-0.4-0.6-0.6-1.1-0.6-0.2 0-0.3 0-0.5 0.1l-2.8-3.3c0.1-0.2 0.1-0.3 0.1-0.5 0-0.7-0.6-1.2-1.3-1.2s-1.3 0.5-1.3 1.2c0 0.3 0.2 0.6 0.4 0.9l-3.5 8.2h-0.2l-3.6-5.3c0.1-0.2 0.2-0.4 0.2-0.7 0-0.7-0.6-1.2-1.3-1.2s-1.3 0.5-1.3 1.2c0 0.2 0.1 0.4 0.2 0.6l-3.9 4.6 0.8 0.6 3.9-4.6h0.2 0.2l3.7 5.3c-0.1 0.2-0.2 0.4-0.2 0.7 0 0.7 0.6 1.2 1.3 1.2s1.3-0.5 1.3-1.2c0-0.3-0.1-0.6-0.3-0.8l3.5-8.3c0.1 0 0.2 0 0.3-0.1l2.9 3.4c-0.1 0.1-0.1 0.3-0.1 0.4 0 0.7 0.6 1.2 1.3 1.2 0.5 0 1-0.3 1.2-0.8l4.2-1.2-0.3-0.9-4 1.1z"/>
  </g>
  <g stroke-width="19" transform="matrix(0 -.041518 -.055995 0 27.532 28.691)" stroke="#fff" class="s0">
    <path stroke-width="18.3" d="m408.8 179-138.8-185.2c-2.9-3.9-7.3-5.4-11.9-5.4s-8.6 1.8-11.9 5.4c-3.4 3.6-5.2 7.9-5 12.9l3 112-18.7 1.7c-125.4 11.5-183.2 36.6-211.8 113.4-9.4 25.6-14.1 57.3-14.1 95.2 0 31.6 11.2 52.8 33.7 107.1 0.5 1.3 1.5 3.6 2.8 6.9 1.3 3.2 2.5 6.1 3.6 8.6s2.2 4.6 3.5 6.3c2.1 3.2 4.6 4.9 7.4 4.9 2.7 0 4.7-1 6.2-2.9s2.3-4.3 2.3-7.1c0-1.7-0.2-4.2-0.7-7.6-0.4-3.3-0.7-5.6-0.7-6.7-0.9-13-1.3-24.7-1.3-35.2 0-19.2 1.5-14.7 4.6-29.9s7.4-28.4 12.9-39.6 12.6-20.8 21.2-28.9c8.7-8.1 18-14.7 28-19.9 10-5.1 21.8-9.2 35.3-12.1 13.5-3 17.2-3.1 25.8-4.4 29.9-4.8 17.6-2.3 41.6-2.9l18.3-0.5v110.2c0 5 1.7 9.2 5 12.9 3.4 3.6 7.3 5.4 11.9 5.4s8.6-1.8 11.9-5.4l135.9-183.5c3.4-3.6 5-7.9 5-12.9s-1.7-9.2-5-12.9z" stroke="#fff"/>
  </g>
</svg>
